<svg width="23" height="25" viewBox="0 0 23 25" fill="none" xmlns="http://www.w3.org/2000/svg">
<path d="M19.4587 24.2746C20.1627 25.1258 21.4234 25.2452 22.2746 24.5413C23.1258 23.8373 23.2452 22.5766 22.5412 21.7254L19.4587 24.2746ZM16.2103 10.0625C16.2103 13.4008 13.4869 16.125 10.1052 16.125V20.125C15.6761 20.125 20.2103 15.6298 20.2103 10.0625H16.2103ZM10.1052 16.125C6.72341 16.125 4 13.4008 4 10.0625H0C0 15.6298 4.5342 20.125 10.1052 20.125V16.125ZM4 10.0625C4 6.72421 6.72341 4 10.1052 4V0C4.5342 0 0 4.4952 0 10.0625H4ZM10.1052 4C13.4869 4 16.2103 6.72421 16.2103 10.0625H20.2103C20.2103 4.4952 15.6761 0 10.1052 0V4ZM22.5412 21.7254L16.5095 14.4317L13.427 16.9808L19.4587 24.2746L22.5412 21.7254Z" fill="#A39A92"/>
</svg>
