<svg width="206" height="44" viewBox="0 0 206 44" fill="none" xmlns="http://www.w3.org/2000/svg">
<path d="M22.0484 44H21.9516C9.84762 44 0 34.1524 0 22.0484V21.9516C0 9.8476 9.84762 0 21.9516 0H22.0484C34.1524 0 44 9.8476 44 21.9516V22.0484C44 34.1524 34.1524 44 22.0484 44ZM21.9516 1.48935C10.6682 1.48935 1.48935 10.6682 1.48935 21.9516V22.0484C1.48935 33.3318 10.6682 42.5106 21.9516 42.5106H22.0484C33.3318 42.5106 42.5106 33.3318 42.5106 22.0484V21.9516C42.5106 10.6682 33.3318 1.48935 22.0484 1.48935H21.9516Z" fill="#3E3935"/>
<path d="M28.5777 9.39331H15.4237C11.7897 9.39331 8.83334 12.3497 8.83334 15.9837V28.0177C8.83334 31.6517 11.7897 34.6081 15.4237 34.6081H28.5777C32.2117 34.6081 35.1681 31.6517 35.1681 28.0177V15.9837C35.1681 12.3497 32.2117 9.39331 28.5777 9.39331ZM11.1582 15.9837C11.1582 13.632 13.072 11.7182 15.4237 11.7182H28.5777C30.9294 11.7182 32.8432 13.632 32.8432 15.9837V28.0177C32.8432 30.3694 30.9294 32.2832 28.5777 32.2832H15.4237C13.072 32.2832 11.1582 30.3694 11.1582 28.0177V15.9837Z" fill="#3E3935"/>
<path d="M22.0008 28.1294C25.3801 28.1294 28.1309 25.38 28.1309 21.9992C28.1309 18.6184 25.3816 15.869 22.0008 15.869C18.6199 15.869 15.8706 18.6184 15.8706 21.9992C15.8706 25.38 18.6199 28.1294 22.0008 28.1294ZM22.0008 18.1954C24.0993 18.1954 25.8061 19.9022 25.8061 22.0007C25.8061 24.0992 24.0993 25.806 22.0008 25.806C19.9023 25.806 18.1955 24.0992 18.1955 22.0007C18.1955 19.9022 19.9023 18.1954 22.0008 18.1954Z" fill="#3E3935"/>
<path d="M28.6984 16.8604C29.6084 16.8604 30.3501 16.12 30.3501 15.2082C30.3501 14.2965 29.6099 13.556 28.6984 13.556C27.7869 13.556 27.0467 14.2965 27.0467 15.2082C27.0467 16.12 27.7869 16.8604 28.6984 16.8604Z" fill="#3E3935"/>
<path d="M76.0484 44H75.9516C63.8476 44 54 34.1524 54 22.0484V21.9516C54 9.84764 63.8476 0 75.9516 0H76.0484C88.1524 0 98 9.84764 98 21.9516V22.0484C98 34.1524 88.1524 44 76.0484 44ZM75.9516 1.48935C64.6682 1.48935 55.4894 10.6683 55.4894 21.9516V22.0484C55.4894 33.3318 64.6682 42.5106 75.9516 42.5106H76.0484C87.3318 42.5106 96.5106 33.3318 96.5106 22.0484V21.9516C96.5106 10.6683 87.3318 1.48935 76.0484 1.48935H75.9516Z" fill="#383D38"/>
<path d="M78.9601 17.0665V21.6969H84.6882L83.7812 27.9343H78.9601V42.3051C77.9935 42.4391 77.0046 42.5092 76.0008 42.5092C74.842 42.5092 73.7042 42.4168 72.5961 42.2381V27.9343H67.3134V21.6969H72.5961V16.0314C72.5961 12.5165 75.4452 9.66589 78.9616 9.66589V9.66888C78.972 9.66888 78.981 9.66589 78.9914 9.66589H84.6897V15.0603H80.9663C79.8597 15.0603 78.9616 15.9584 78.9616 17.065L78.9601 17.0665Z" fill="#383D38"/>
<path d="M184.048 44H183.952C171.848 44 162 34.1524 162 22.0484V21.9516C162 9.8476 171.848 0 183.952 0H184.048C196.152 0 206 9.8476 206 21.9516V22.0484C206 34.1524 196.152 44 184.048 44ZM183.952 1.48935C172.668 1.48935 163.489 10.6682 163.489 21.9516V22.0484C163.489 33.3318 172.668 42.5106 183.952 42.5106H184.048C195.332 42.5106 204.511 33.3318 204.511 22.0484V21.9516C204.511 10.6682 195.332 1.48935 184.048 1.48935H183.952Z" fill="#383D38"/>
<path d="M170.796 21.274C170.856 21.2442 170.915 21.2159 170.973 21.1891C171.983 20.7214 173.006 20.2835 174.028 19.8457C174.083 19.8457 174.175 19.7816 174.228 19.7608C174.307 19.7265 174.385 19.6937 174.464 19.6595C174.616 19.594 174.768 19.5299 174.919 19.4644C175.222 19.3348 175.525 19.2052 175.829 19.0757C176.435 18.8165 177.041 18.5574 177.647 18.2967C178.859 17.7784 180.073 17.2586 181.286 16.7403C182.498 16.222 183.712 15.7023 184.924 15.184C186.136 14.6657 187.35 14.1459 188.563 13.6276C189.775 13.1093 190.989 12.5895 192.201 12.0712C192.471 11.9551 192.763 11.7823 193.052 11.7317C193.294 11.6885 193.531 11.6051 193.775 11.5589C194.239 11.471 194.749 11.4353 195.193 11.6274C195.347 11.6944 195.488 11.7882 195.606 11.9059C196.169 12.4629 196.09 13.3774 195.971 14.1608C195.141 19.6208 194.312 25.0822 193.48 30.5422C193.367 31.2914 193.212 32.1135 192.621 32.5871C192.121 32.9877 191.409 33.0324 190.791 32.8626C190.173 32.6913 189.628 32.3324 189.093 31.9794C186.875 30.5109 184.656 29.0424 182.438 27.5739C181.911 27.2254 181.324 26.7697 181.33 26.1367C181.333 25.7554 181.561 25.4158 181.794 25.1135C183.721 22.5995 186.501 20.8718 188.57 18.474C188.862 18.1359 189.091 17.5253 188.691 17.3302C188.452 17.214 188.178 17.3718 187.961 17.5223C185.226 19.4212 182.494 21.3216 179.759 23.2205C178.867 23.8401 177.932 24.4775 176.856 24.6294C175.894 24.7665 174.926 24.4984 173.995 24.2243C173.215 23.995 172.436 23.7597 171.66 23.5169C171.247 23.3888 170.821 23.2503 170.503 22.9599C170.184 22.6695 170.001 22.181 170.193 21.7937C170.314 21.551 170.547 21.3976 170.793 21.2725L170.796 21.274Z" fill="#383D38"/>
<path d="M130 44C117.869 44 108 34.1313 108 22C108 9.86872 117.869 0 130 0C142.131 0 152 9.86872 152 22C152 34.1313 142.131 44 130 44ZM130 1.49345C118.693 1.49345 109.493 10.6931 109.493 22C109.493 33.3069 118.693 42.5066 130 42.5066C141.307 42.5066 150.507 33.3069 150.507 22C150.507 10.6931 141.307 1.49345 130 1.49345Z" fill="#383D38"/>
<path d="M143.383 17.5958C143.216 15.9814 142.856 14.1967 141.531 13.2589C140.505 12.5315 139.156 12.5047 137.897 12.5062C135.236 12.5076 132.573 12.5106 129.912 12.5121C127.352 12.5151 124.792 12.5166 122.233 12.5196C121.163 12.5211 120.124 12.4375 119.131 12.9004C118.278 13.2977 117.61 14.0534 117.209 14.8942C116.652 16.0635 116.535 17.3883 116.468 18.6816C116.344 21.0367 116.357 23.3979 116.505 25.7516C116.614 27.469 116.891 29.3672 118.218 30.4619C119.395 31.4311 121.056 31.4789 122.582 31.4804C127.427 31.4849 132.273 31.4894 137.119 31.4924C137.741 31.4939 138.389 31.4819 139.022 31.4132C140.267 31.2788 141.455 30.9219 142.255 29.9989C143.063 29.0685 143.271 27.7737 143.393 26.5476C143.692 23.5726 143.689 20.5693 143.383 17.5958ZM127.11 26.1697V17.8288L134.333 21.9985L127.11 26.1697Z" fill="#383D38"/>
</svg>
